<svg xmlns="http://www.w3.org/2000/svg" viewBox="0 0 24 24" width="64" height="64" fill="none" stroke="currentColor" stroke-width="2" stroke-linecap="round" stroke-linejoin="round" class="icon">
  <!-- Sun -->
  <circle cx="12" cy="12" r="4" stroke="#FFD700" stroke-width="2" fill="#FFD700"/>
  <!-- Cloud -->
  <path d="M16 14a4 4 0 0 0-8 0h-1a3 3 0 0 0-3 3 3 3 0 0 0 3 3h12a3 3 0 0 0 3-3 3 3 0 0 0-3-3h-1z" stroke="#B0BEC5" stroke-width="2" fill="#B0BEC5"/>
  <!-- Sun Rays -->
  <line x1="12" y1="4" x2="12" y2="1" stroke="#FFD700" stroke-width="2"/>
  <line x1="12" y1="23" x2="12" y2="20" stroke="#FFD700" stroke-width="2"/>
  <line x1="20.5" y1="7.5" x2="22" y2="6" stroke="#FFD700" stroke-width="2"/>
  <line x1="4.5" y1="7.5" x2="3" y2="6" stroke="#FFD700" stroke-width="2"/>
  <line x1="20.5" y1="16.5" x2="22" y2="18" stroke="#FFD700" stroke-width="2"/>
  <line x1="4.5" y1="16.5" x2="3" y2="18" stroke="#FFD700" stroke-width="2"/>
</svg>
